<svg width="600" height="400" viewBox="0 0 600 400" xmlns="http://www.w3.org/2000/svg">
  <!-- Sky background -->
  <rect width="600" height="250" fill="#87CEEB"/>
  
  <!-- Clouds -->
  <ellipse cx="150" cy="80" rx="30" ry="20" fill="white" opacity="0.8"/>
  <ellipse cx="170" cy="75" rx="25" ry="15" fill="white" opacity="0.8"/>
  <ellipse cx="135" cy="75" rx="20" ry="12" fill="white" opacity="0.8"/>
  
  <ellipse cx="450" cy="60" rx="35" ry="22" fill="white" opacity="0.8"/>
  <ellipse cx="475" cy="55" rx="28" ry="18" fill="white" opacity="0.8"/>
  <ellipse cx="425" cy="55" rx="22" ry="14" fill="white" opacity="0.8"/>
  
  <!-- Ground -->
  <rect x="0" y="250" width="600" height="150" fill="#90EE90"/>
  
  <!-- Safety surface under equipment -->
  <ellipse cx="200" cy="320" rx="120" ry="60" fill="#8B4513" opacity="0.3"/>
  <ellipse cx="450" cy="320" rx="100" ry="50" fill="#8B4513" opacity="0.3"/>
  
  <!-- Playground equipment -->
  <!-- Swing set -->
  <rect x="80" y="200" width="6" height="100" fill="#8B4513"/>
  <rect x="140" y="200" width="6" height="100" fill="#8B4513"/>
  <rect x="80" y="200" width="66" height="8" fill="#8B4513"/>
  
  <!-- Swings -->
  <line x1="100" y1="208" x2="100" y2="280" stroke="#333" stroke-width="2"/>
  <line x1="105" y1="208" x2="105" y2="280" stroke="#333" stroke-width="2"/>
  <rect x="95" y="280" width="15" height="8" fill="#D2543B" rx="4"/>
  
  <line x1="120" y1="208" x2="120" y2="285" stroke="#333" stroke-width="2"/>
  <line x1="125" y1="208" x2="125" y2="285" stroke="#333" stroke-width="2"/>
  <rect x="115" y="285" width="15" height="8" fill="#4ECDC4" rx="4"/>
  
  <!-- Slide structure -->
  <rect x="180" y="220" width="60" height="80" fill="#FFD700"/>
  <!-- Slide platform -->
  <rect x="240" y="220" width="40" height="20" fill="#8A9C78"/>
  <!-- Slide -->
  <path d="M280 240 Q320 280 360 320" stroke="#FF6B6B" stroke-width="20" fill="none"/>
  <!-- Ladder -->
  <rect x="175" y="240" width="8" height="60" fill="#8B4513"/>
  <line x1="170" y1="250" x2="185" y2="250" stroke="#8B4513" stroke-width="3"/>
  <line x1="170" y1="265" x2="185" y2="265" stroke="#8B4513" stroke-width="3"/>
  <line x1="170" y1="280" x2="185" y2="280" stroke="#8B4513" stroke-width="3"/>
  
  <!-- Seesaw -->
  <ellipse cx="450" cy="310" rx="6" ry="15" fill="#8B4513"/>
  <rect x="400" y="300" width="100" height="6" fill="#D2B48C"/>
  <rect x="395" y="295" width="10" height="16" fill="#D2543B"/>
  <rect x="495" y="295" width="10" height="16" fill="#4ECDC4"/>
  
  <!-- Sandbox -->
  <ellipse cx="520" cy="340" rx="60" ry="40" fill="#F4A460"/>
  <rect x="500" y="330" width="8" height="8" fill="#FFD700"/>
  <rect x="515" y="325" width="6" height="6" fill="#FF6B6B"/>
  <rect x="530" y="335" width="7" height="7" fill="#4ECDC4"/>
  
  <!-- Picnic table -->
  <rect x="50" y="350" width="80" height="6" fill="#8B4513"/>
  <rect x="60" y="340" width="8" height="20" fill="#8B4513"/>
  <rect x="112" y="340" width="8" height="20" fill="#8B4513"/>
  <rect x="45" y="365" width="15" height="6" fill="#8B4513"/>
  <rect x="120" y="365" width="15" height="6" fill="#8B4513"/>
  
  <!-- Trees -->
  <rect x="30" y="180" width="12" height="70" fill="#8B4513"/>
  <ellipse cx="36" cy="160" rx="25" ry="35" fill="#228B22"/>
  
  <rect x="520" y="170" width="15" height="80" fill="#8B4513"/>
  <ellipse cx="527" cy="145" rx="30" ry="40" fill="#228B22"/>
  
  <!-- Fence -->
  <rect x="0" y="240" width="600" height="4" fill="#8B4513"/>
  <rect x="20" y="230" width="4" height="20" fill="#8B4513"/>
  <rect x="40" y="230" width="4" height="20" fill="#8B4513"/>
  <rect x="560" y="230" width="4" height="20" fill="#8B4513"/>
  <rect x="580" y="230" width="4" height="20" fill="#8B4513"/>
  
  <!-- Flowers -->
  <circle cx="470" cy="370" r="3" fill="#FF1493"/>
  <circle cx="480" cy="375" r="3" fill="#FFD700"/>
  <circle cx="490" cy="370" r="3" fill="#FF69B4"/>
  
  <!-- Building in background -->
  <rect x="300" y="150" width="120" height="100" fill="#F5F0E8"/>
  <rect x="320" y="170" width="25" height="30" fill="#87CEEB" stroke="#8A9C78" stroke-width="2"/>
  <rect x="355" y="170" width="25" height="30" fill="#87CEEB" stroke="#8A9C78" stroke-width="2"/>
  <rect x="340" y="210" width="20" height="40" fill="#8B4513"/>
  
  <!-- Sun -->
  <circle cx="500" cy="100" r="25" fill="#FFD700"/>
  <line x1="500" y1="60" x2="500" y2="70" stroke="#FFD700" stroke-width="3"/>
  <line x1="540" y1="100" x2="530" y2="100" stroke="#FFD700" stroke-width="3"/>
  <line x1="500" y1="140" x2="500" y2="130" stroke="#FFD700" stroke-width="3"/>
  <line x1="460" y1="100" x2="470" y2="100" stroke="#FFD700" stroke-width="3"/>
  <line x1="520" y1="80" x2="515" y2="85" stroke="#FFD700" stroke-width="3"/>
  <line x1="520" y1="120" x2="515" y2="115" stroke="#FFD700" stroke-width="3"/>
  <line x1="480" y1="80" x2="485" y2="85" stroke="#FFD700" stroke-width="3"/>
  <line x1="480" y1="120" x2="485" y2="115" stroke="#FFD700" stroke-width="3"/>
</svg>