<svg width="400" height="300" viewBox="0 0 400 300" xmlns="http://www.w3.org/2000/svg">
  <!-- Background -->
  <rect width="400" height="300" fill="#FEFBF6"/>
  
  <!-- Room floor -->
  <rect x="0" y="240" width="400" height="60" fill="#E8D5C4"/>
  
  <!-- Wall -->
  <rect x="0" y="0" width="400" height="240" fill="#F5F0E8"/>
  
  <!-- Large windows -->
  <rect x="280" y="30" width="100" height="90" fill="#87CEEB" stroke="#8A9C78" stroke-width="3"/>
  <line x1="330" y1="30" x2="330" y2="120" stroke="#8A9C78" stroke-width="2"/>
  <line x1="280" y1="75" x2="380" y2="75" stroke="#8A9C78" stroke-width="2"/>
  
  <!-- Individual desks arrangement -->
  <rect x="80" y="170" width="25" height="20" fill="#D2B48C"/>
  <rect x="85" y="155" width="15" height="15" fill="#D2543B"/>
  
  <rect x="130" y="170" width="25" height="20" fill="#D2B48C"/>
  <rect x="135" y="155" width="15" height="15" fill="#8A9C78"/>
  
  <rect x="180" y="170" width="25" height="20" fill="#D2B48C"/>
  <rect x="185" y="155" width="15" height="15" fill="#4ECDC4"/>
  
  <rect x="80" y="200" width="25" height="20" fill="#D2B48C"/>
  <rect x="85" y="185" width="15" height="15" fill="#FFD700"/>
  
  <rect x="130" y="200" width="25" height="20" fill="#D2B48C"/>
  <rect x="135" y="185" width="15" height="15" fill="#FF6B6B"/>
  
  <!-- Teacher's desk -->
  <rect x="250" y="160" width="40" height="30" fill="#8B4513"/>
  <rect x="255" y="165" width="30" height="20" fill="#D2B48C"/>
  
  <!-- Whiteboard -->
  <rect x="40" y="80" width="80" height="50" fill="white" stroke="#333" stroke-width="3"/>
  <text x="80" y="100" text-anchor="middle" fill="#355E3B" font-size="10" font-weight="bold">Today is Monday</text>
  <text x="80" y="115" text-anchor="middle" fill="#D2543B" font-size="10" font-weight="bold">2 + 3 = 5</text>
  
  <!-- Calendar -->
  <rect x="150" y="80" width="50" height="40" fill="white" stroke="#333" stroke-width="2"/>
  <text x="175" y="95" text-anchor="middle" fill="#355E3B" font-size="8" font-weight="bold">MARCH</text>
  <!-- Calendar grid -->
  <line x1="150" y1="100" x2="200" y2="100" stroke="#333" stroke-width="1"/>
  <line x1="165" y1="100" x2="165" y2="120" stroke="#333" stroke-width="1"/>
  <line x1="175" y1="100" x2="175" y2="120" stroke="#333" stroke-width="1"/>
  <line x1="185" y1="100" x2="185" y2="120" stroke="#333" stroke-width="1"/>
  
  <!-- Reading corner with advanced books -->
  <rect x="320" y="140" width="60" height="70" fill="#8B4513"/>
  <!-- Shelves with more books -->
  <line x1="320" y1="155" x2="380" y2="155" stroke="#654321" stroke-width="2"/>
  <line x1="320" y1="170" x2="380" y2="170" stroke="#654321" stroke-width="2"/>
  <line x1="320" y1="185" x2="380" y2="185" stroke="#654321" stroke-width="2"/>
  <line x1="320" y1="200" x2="380" y2="200" stroke="#654321" stroke-width="2"/>
  <!-- Books -->
  <rect x="325" y="145" width="8" height="8" fill="#FF6B6B"/>
  <rect x="335" y="145" width="8" height="8" fill="#4ECDC4"/>
  <rect x="345" y="145" width="8" height="8" fill="#FFD700"/>
  <rect x="355" y="145" width="8" height="8" fill="#8A9C78"/>
  
  <!-- Science/Discovery center -->
  <rect x="60" y="140" width="60" height="40" fill="#F4A261"/>
  <!-- Magnifying glass -->
  <circle cx="80" cy="155" r="8" fill="white" stroke="#333" stroke-width="2"/>
  <line x1="86" y1="161" x2="95" y2="170" stroke="#333" stroke-width="3"/>
  <!-- Specimens -->
  <circle cx="100" cy="155" r="4" fill="#4ECDC4"/>
  
  <!-- Writing center -->
  <rect x="250" y="200" width="50" height="25" fill="#E8D5C4"/>
  <rect x="255" y="205" width="8" height="2" fill="#333"/>
  <rect x="265" y="205" width="8" height="2" fill="#333"/>
  <rect x="275" y="205" width="8" height="2" fill="#333"/>
  
  <!-- Learning materials on desks -->
  <circle cx="92" cy="175" r="2" fill="#FF6B6B"/>
  <rect x="140" y="173" width="4" height="4" fill="#4ECDC4"/>
  <circle cx="192" cy="175" r="2" fill="#FFD700"/>
  
  <!-- Alphabet strip -->
  <rect x="50" y="40" width="200" height="15" fill="white" stroke="#333" stroke-width="1"/>
  <text x="150" y="50" text-anchor="middle" fill="#355E3B" font-size="8" font-weight="bold">A B C D E F G H I J K L M N O P Q R S T U V W X Y Z</text>
  
  <!-- Title -->
  <text x="200" y="25" text-anchor="middle" fill="#355E3B" font-size="18" font-weight="bold" font-family="serif">Pre-K Program (4-5 years)</text>
</svg>